<svg width="279" height="67" viewBox="0 0 279 67" fill="none" xmlns="http://www.w3.org/2000/svg">
<path d="M125.421 31C124.989 28.6136 123.08 27.2045 120.739 27.2045C117.762 27.2045 115.603 29.5 115.603 33.1818C115.603 36.8636 117.762 39.1591 120.739 39.1591C123.08 39.1591 124.989 37.75 125.421 35.3636H124.012C123.671 36.9773 122.285 37.8409 120.739 37.8409C118.626 37.8409 116.967 36.2045 116.967 33.1818C116.967 30.1591 118.626 28.5227 120.739 28.5227C122.285 28.5227 123.671 29.3864 124.012 31H125.421ZM131.062 39.1818C133.425 39.1818 135.016 37.3864 135.016 34.6818C135.016 31.9545 133.425 30.1591 131.062 30.1591C128.698 30.1591 127.107 31.9545 127.107 34.6818C127.107 37.3864 128.698 39.1818 131.062 39.1818ZM131.062 37.9773C129.266 37.9773 128.448 36.4318 128.448 34.6818C128.448 32.9318 129.266 31.3636 131.062 31.3636C132.857 31.3636 133.675 32.9318 133.675 34.6818C133.675 36.4318 132.857 37.9773 131.062 37.9773ZM137.063 42.2727H138.404V37.6591H138.518C138.813 38.1364 139.381 39.1818 141.063 39.1818C143.245 39.1818 144.768 37.4318 144.768 34.6591C144.768 31.9091 143.245 30.1591 141.04 30.1591C139.336 30.1591 138.813 31.2045 138.518 31.6591H138.359V30.2727H137.063V42.2727ZM138.381 34.6364C138.381 32.6818 139.245 31.3636 140.881 31.3636C142.586 31.3636 143.427 32.7955 143.427 34.6364C143.427 36.5 142.563 37.9773 140.881 37.9773C139.268 37.9773 138.381 36.6136 138.381 34.6364ZM146.813 39H148.154V30.2727H146.813V39ZM147.495 28.8182C148.018 28.8182 148.45 28.4091 148.45 27.9091C148.45 27.4091 148.018 27 147.495 27C146.972 27 146.54 27.4091 146.54 27.9091C146.54 28.4091 146.972 28.8182 147.495 28.8182ZM153.178 39.2045C154.701 39.2045 155.496 38.3864 155.769 37.8182H155.837V39H157.178V33.25C157.178 30.4773 155.065 30.1591 153.951 30.1591C152.633 30.1591 151.133 30.6136 150.451 32.2045L151.724 32.6591C152.019 32.0227 152.718 31.3409 153.996 31.3409C155.229 31.3409 155.837 31.9943 155.837 33.1136V33.1591C155.837 33.8068 155.178 33.75 153.587 33.9545C151.968 34.1648 150.201 34.5227 150.201 36.5227C150.201 38.2273 151.519 39.2045 153.178 39.2045ZM153.383 38C152.315 38 151.542 37.5227 151.542 36.5909C151.542 35.5682 152.474 35.25 153.519 35.1136C154.087 35.0455 155.61 34.8864 155.837 34.6136V35.8409C155.837 36.9318 154.974 38 153.383 38ZM159.626 39H160.967V33.4773C160.967 32.2955 161.898 31.4318 163.171 31.4318C163.529 31.4318 163.898 31.5 163.989 31.5227V30.1591C163.836 30.1477 163.484 30.1364 163.285 30.1364C162.239 30.1364 161.33 30.7273 161.012 31.5909H160.921V30.2727H159.626V39Z" fill="#0A3871"/>
<rect x="0.5" y="0.5" width="278" height="66" rx="23.5" stroke="#0A3871"/>
</svg>
