<svg width="624" height="67" viewBox="0 0 624 67" fill="none" xmlns="http://www.w3.org/2000/svg">
<path d="M297.921 31C297.489 28.6136 295.58 27.2045 293.239 27.2045C290.262 27.2045 288.103 29.5 288.103 33.1818C288.103 36.8636 290.262 39.1591 293.239 39.1591C295.58 39.1591 297.489 37.75 297.921 35.3636H296.512C296.171 36.9773 294.785 37.8409 293.239 37.8409C291.126 37.8409 289.467 36.2045 289.467 33.1818C289.467 30.1591 291.126 28.5227 293.239 28.5227C294.785 28.5227 296.171 29.3864 296.512 31H297.921ZM303.562 39.1818C305.925 39.1818 307.516 37.3864 307.516 34.6818C307.516 31.9545 305.925 30.1591 303.562 30.1591C301.198 30.1591 299.607 31.9545 299.607 34.6818C299.607 37.3864 301.198 39.1818 303.562 39.1818ZM303.562 37.9773C301.766 37.9773 300.948 36.4318 300.948 34.6818C300.948 32.9318 301.766 31.3636 303.562 31.3636C305.357 31.3636 306.175 32.9318 306.175 34.6818C306.175 36.4318 305.357 37.9773 303.562 37.9773ZM309.563 42.2727H310.904V37.6591H311.018C311.313 38.1364 311.881 39.1818 313.563 39.1818C315.745 39.1818 317.268 37.4318 317.268 34.6591C317.268 31.9091 315.745 30.1591 313.54 30.1591C311.836 30.1591 311.313 31.2045 311.018 31.6591H310.859V30.2727H309.563V42.2727ZM310.881 34.6364C310.881 32.6818 311.745 31.3636 313.381 31.3636C315.086 31.3636 315.927 32.7955 315.927 34.6364C315.927 36.5 315.063 37.9773 313.381 37.9773C311.768 37.9773 310.881 36.6136 310.881 34.6364ZM319.313 39H320.654V30.2727H319.313V39ZM319.995 28.8182C320.518 28.8182 320.95 28.4091 320.95 27.9091C320.95 27.4091 320.518 27 319.995 27C319.472 27 319.04 27.4091 319.04 27.9091C319.04 28.4091 319.472 28.8182 319.995 28.8182ZM325.678 39.2045C327.201 39.2045 327.996 38.3864 328.269 37.8182H328.337V39H329.678V33.25C329.678 30.4773 327.565 30.1591 326.451 30.1591C325.133 30.1591 323.633 30.6136 322.951 32.2045L324.224 32.6591C324.519 32.0227 325.218 31.3409 326.496 31.3409C327.729 31.3409 328.337 31.9943 328.337 33.1136V33.1591C328.337 33.8068 327.678 33.75 326.087 33.9545C324.468 34.1648 322.701 34.5227 322.701 36.5227C322.701 38.2273 324.019 39.2045 325.678 39.2045ZM325.883 38C324.815 38 324.042 37.5227 324.042 36.5909C324.042 35.5682 324.974 35.25 326.019 35.1136C326.587 35.0455 328.11 34.8864 328.337 34.6136V35.8409C328.337 36.9318 327.474 38 325.883 38ZM332.126 39H333.467V33.4773C333.467 32.2955 334.398 31.4318 335.671 31.4318C336.029 31.4318 336.398 31.5 336.489 31.5227V30.1591C336.336 30.1477 335.984 30.1364 335.785 30.1364C334.739 30.1364 333.83 30.7273 333.512 31.5909H333.421V30.2727H332.126V39Z" fill="#0A3871"/>
<rect x="0.5" y="0.5" width="623" height="66" rx="23.5" stroke="#0A3871"/>
</svg>
