<svg width="343" height="67" viewBox="0 0 343 67" fill="none" xmlns="http://www.w3.org/2000/svg">
<path d="M127.969 39C131.514 39 133.514 36.7955 133.514 33.1591C133.514 29.5455 131.514 27.3636 128.128 27.3636H124.378V39H127.969ZM125.787 37.75V28.6136H128.037C130.764 28.6136 132.151 30.3409 132.151 33.1591C132.151 36 130.764 37.75 127.878 37.75H125.787ZM139.355 39.1818C141.128 39.1818 142.423 38.2955 142.832 36.9773L141.537 36.6136C141.196 37.5227 140.406 37.9773 139.355 37.9773C137.781 37.9773 136.696 36.9602 136.634 35.0909H142.969V34.5227C142.969 31.2727 141.037 30.1591 139.219 30.1591C136.855 30.1591 135.287 32.0227 135.287 34.7045C135.287 37.3864 136.832 39.1818 139.355 39.1818ZM136.634 33.9318C136.724 32.5739 137.685 31.3636 139.219 31.3636C140.673 31.3636 141.605 32.4545 141.605 33.9318H136.634ZM151.19 32.2273C150.77 30.9886 149.827 30.1591 148.099 30.1591C146.259 30.1591 144.895 31.2045 144.895 32.6818C144.895 33.8864 145.611 34.6932 147.213 35.0682L148.668 35.4091C149.548 35.6136 149.963 36.0341 149.963 36.6364C149.963 37.3864 149.168 38 147.918 38C146.821 38 146.134 37.5284 145.895 36.5909L144.622 36.9091C144.935 38.392 146.156 39.1818 147.94 39.1818C149.969 39.1818 151.349 38.0739 151.349 36.5682C151.349 35.3523 150.588 34.5852 149.031 34.2045L147.736 33.8864C146.702 33.6307 146.236 33.2841 146.236 32.6136C146.236 31.8636 147.031 31.3182 148.099 31.3182C149.27 31.3182 149.753 31.9659 149.986 32.5682L151.19 32.2273ZM157.027 39.1818C158.8 39.1818 160.095 38.2955 160.504 36.9773L159.209 36.6136C158.868 37.5227 158.078 37.9773 157.027 37.9773C155.453 37.9773 154.368 36.9602 154.305 35.0909H160.641V34.5227C160.641 31.2727 158.709 30.1591 156.891 30.1591C154.527 30.1591 152.959 32.0227 152.959 34.7045C152.959 37.3864 154.504 39.1818 157.027 39.1818ZM154.305 33.9318C154.396 32.5739 155.357 31.3636 156.891 31.3636C158.345 31.3636 159.277 32.4545 159.277 33.9318H154.305ZM164.021 33.75C164.021 32.2273 164.964 31.3636 166.249 31.3636C167.493 31.3636 168.249 32.1761 168.249 33.5455V39H169.589V33.4545C169.589 31.2273 168.402 30.1591 166.635 30.1591C165.317 30.1591 164.499 30.75 164.089 31.6364H163.976V30.2727H162.68V39H164.021V33.75ZM175.585 39.1818C177.517 39.1818 178.79 38 179.017 36.4545H177.676C177.426 37.4091 176.631 37.9773 175.585 37.9773C173.994 37.9773 172.972 36.6591 172.972 34.6364C172.972 32.6591 174.017 31.3636 175.585 31.3636C176.767 31.3636 177.472 32.0909 177.676 32.8864H179.017C178.79 31.25 177.403 30.1591 175.562 30.1591C173.199 30.1591 171.631 32.0227 171.631 34.6818C171.631 37.2955 173.131 39.1818 175.585 39.1818ZM180.977 39H182.318V33.4773C182.318 32.2955 183.25 31.4318 184.523 31.4318C184.881 31.4318 185.25 31.5 185.341 31.5227V30.1591C185.188 30.1477 184.835 30.1364 184.636 30.1364C183.591 30.1364 182.682 30.7273 182.364 31.5909H182.273V30.2727H180.977V39ZM186.93 39H188.271V30.2727H186.93V39ZM187.612 28.8182C188.135 28.8182 188.567 28.4091 188.567 27.9091C188.567 27.4091 188.135 27 187.612 27C187.089 27 186.658 27.4091 186.658 27.9091C186.658 28.4091 187.089 28.8182 187.612 28.8182ZM190.727 42.2727H192.068V37.6591H192.182C192.477 38.1364 193.045 39.1818 194.727 39.1818C196.909 39.1818 198.432 37.4318 198.432 34.6591C198.432 31.9091 196.909 30.1591 194.705 30.1591C193 30.1591 192.477 31.2045 192.182 31.6591H192.023V30.2727H190.727V42.2727ZM192.045 34.6364C192.045 32.6818 192.909 31.3636 194.545 31.3636C196.25 31.3636 197.091 32.7955 197.091 34.6364C197.091 36.5 196.227 37.9773 194.545 37.9773C192.932 37.9773 192.045 36.6136 192.045 34.6364ZM204.273 30.2727H202.409V28.1818H201.068V30.2727H199.75V31.4091H201.068V36.8636C201.068 38.3864 202.295 39.1136 203.432 39.1136C203.932 39.1136 204.25 39.0227 204.432 38.9545L204.159 37.75C204.045 37.7727 203.864 37.8182 203.568 37.8182C202.977 37.8182 202.409 37.6364 202.409 36.5V31.4091H204.273V30.2727ZM208.858 39.2045C210.381 39.2045 211.176 38.3864 211.449 37.8182H211.517V39H212.858V33.25C212.858 30.4773 210.744 30.1591 209.631 30.1591C208.312 30.1591 206.812 30.6136 206.131 32.2045L207.403 32.6591C207.699 32.0227 208.398 31.3409 209.676 31.3409C210.909 31.3409 211.517 31.9943 211.517 33.1136V33.1591C211.517 33.8068 210.858 33.75 209.267 33.9545C207.648 34.1648 205.881 34.5227 205.881 36.5227C205.881 38.2273 207.199 39.2045 208.858 39.2045ZM209.062 38C207.994 38 207.222 37.5227 207.222 36.5909C207.222 35.5682 208.153 35.25 209.199 35.1136C209.767 35.0455 211.29 34.8864 211.517 34.6136V35.8409C211.517 36.9318 210.653 38 209.062 38ZM215.305 39H216.646V33.4773C216.646 32.2955 217.578 31.4318 218.851 31.4318C219.209 31.4318 219.578 31.5 219.669 31.5227V30.1591C219.516 30.1477 219.163 30.1364 218.964 30.1364C217.919 30.1364 217.01 30.7273 216.692 31.5909H216.601V30.2727H215.305V39Z" fill="#0A3871"/>
<rect x="0.5" y="0.5" width="342" height="66" rx="23.5" stroke="#0A3871"/>
</svg>
