<svg width="343" height="67" viewBox="0 0 343 67" fill="none" xmlns="http://www.w3.org/2000/svg">
<rect width="343" height="67" rx="24" fill="#0A3871"/>
<path d="M138.839 39H145.952V37.75H140.248V33.7955H145.498V32.5455H140.248V28.6136H145.862V27.3636H138.839V39ZM149.56 33.75C149.56 32.2273 150.504 31.3636 151.788 31.3636C153.032 31.3636 153.788 32.1761 153.788 33.5455V39H155.129V33.4545C155.129 31.2273 153.941 30.1591 152.174 30.1591C150.856 30.1591 150.038 30.75 149.629 31.6364H149.515V30.2727H148.219V39H149.56V33.75ZM161.124 39.1818C163.056 39.1818 164.329 38 164.556 36.4545H163.215C162.965 37.4091 162.17 37.9773 161.124 37.9773C159.533 37.9773 158.511 36.6591 158.511 34.6364C158.511 32.6591 159.556 31.3636 161.124 31.3636C162.306 31.3636 163.011 32.0909 163.215 32.8864H164.556C164.329 31.25 162.942 30.1591 161.102 30.1591C158.738 30.1591 157.17 32.0227 157.17 34.6818C157.17 37.2955 158.67 39.1818 161.124 39.1818ZM166.516 39H167.857V33.4773C167.857 32.2955 168.789 31.4318 170.062 31.4318C170.42 31.4318 170.789 31.5 170.88 31.5227V30.1591C170.727 30.1477 170.374 30.1364 170.175 30.1364C169.13 30.1364 168.221 30.7273 167.903 31.5909H167.812V30.2727H166.516V39ZM172.469 39H173.81V30.2727H172.469V39ZM173.151 28.8182C173.674 28.8182 174.106 28.4091 174.106 27.9091C174.106 27.4091 173.674 27 173.151 27C172.629 27 172.197 27.4091 172.197 27.9091C172.197 28.4091 172.629 28.8182 173.151 28.8182ZM176.266 42.2727H177.607V37.6591H177.721C178.016 38.1364 178.585 39.1818 180.266 39.1818C182.448 39.1818 183.971 37.4318 183.971 34.6591C183.971 31.9091 182.448 30.1591 180.244 30.1591C178.539 30.1591 178.016 31.2045 177.721 31.6591H177.562V30.2727H176.266V42.2727ZM177.585 34.6364C177.585 32.6818 178.448 31.3636 180.085 31.3636C181.789 31.3636 182.63 32.7955 182.63 34.6364C182.63 36.5 181.766 37.9773 180.085 37.9773C178.471 37.9773 177.585 36.6136 177.585 34.6364ZM189.812 30.2727H187.948V28.1818H186.607V30.2727H185.289V31.4091H186.607V36.8636C186.607 38.3864 187.835 39.1136 188.971 39.1136C189.471 39.1136 189.789 39.0227 189.971 38.9545L189.698 37.75C189.585 37.7727 189.403 37.8182 189.107 37.8182C188.516 37.8182 187.948 37.6364 187.948 36.5V31.4091H189.812V30.2727ZM194.397 39.2045C195.92 39.2045 196.715 38.3864 196.988 37.8182H197.056V39H198.397V33.25C198.397 30.4773 196.283 30.1591 195.17 30.1591C193.852 30.1591 192.352 30.6136 191.67 32.2045L192.942 32.6591C193.238 32.0227 193.937 31.3409 195.215 31.3409C196.448 31.3409 197.056 31.9943 197.056 33.1136V33.1591C197.056 33.8068 196.397 33.75 194.806 33.9545C193.187 34.1648 191.42 34.5227 191.42 36.5227C191.42 38.2273 192.738 39.2045 194.397 39.2045ZM194.602 38C193.533 38 192.761 37.5227 192.761 36.5909C192.761 35.5682 193.692 35.25 194.738 35.1136C195.306 35.0455 196.829 34.8864 197.056 34.6136V35.8409C197.056 36.9318 196.192 38 194.602 38ZM200.844 39H202.185V33.4773C202.185 32.2955 203.117 31.4318 204.39 31.4318C204.748 31.4318 205.117 31.5 205.208 31.5227V30.1591C205.055 30.1477 204.702 30.1364 204.504 30.1364C203.458 30.1364 202.549 30.7273 202.231 31.5909H202.14V30.2727H200.844V39Z" fill="white"/>
</svg>
